<svg viewBox="0 0 160 140" xmlns="http://www.w3.org/2000/svg">
  <!-- MP Letters - Clean and centered -->
  <g fill="white" font-family="serif" font-weight="bold">
    <!-- Letter M -->
    <path d="M25,30 L25,110 L35,110 L35,55 L50,90 L60,90 L75,55 L75,110 L85,110 L85,30 L72,30 L55,75 L38,30 Z" />
    
    <!-- Letter P -->
    <path d="M95,30 L95,110 L105,110 L105,75 L125,75 C135,75 140,70 140,60 L140,45 C140,35 135,30 125,30 Z M105,40 L125,40 C128,40 130,42 130,45 L130,60 C130,63 128,65 125,65 L105,65 Z" />
  </g>
</svg>